<?xml version="1.0" encoding="utf-8"?>
<svg xmlns="http://www.w3.org/2000/svg" xmlns:xlink="http://www.w3.org/1999/xlink" style="margin: auto; background: rgba(0, 0, 0, 0) none repeat scroll 0% 0%; display: block; shape-rendering: auto;" width="150px" height="150px" viewBox="0 0 100 100" preserveAspectRatio="xMidYMid">
<g transform="translate(50 50)">
<g>
<animateTransform attributeName="transform" type="rotate" values="0;45" keyTimes="0;1" dur="0.6666666666666666s" repeatCount="indefinite"></animateTransform><path d="M26.20591536275732 -6.5 L36.205915362757324 -6.5 L36.205915362757324 6.5 L26.20591536275732 6.5 A27 27 0 0 1 23.12657453791898 13.934186382493865 L23.12657453791898 13.934186382493865 L30.197642349784456 21.00525419435934 L21.005254194359342 30.197642349784456 L13.934186382493866 23.12657453791898 A27 27 0 0 1 6.499999999999998 26.20591536275732 L6.499999999999998 26.20591536275732 L6.499999999999999 36.205915362757324 L-6.499999999999995 36.205915362757324 L-6.499999999999996 26.20591536275732 A27 27 0 0 1 -13.934186382493865 23.12657453791898 L-13.934186382493865 23.12657453791898 L-21.00525419435934 30.197642349784456 L-30.197642349784452 21.005254194359345 L-23.126574537918977 13.93418638249387 A27 27 0 0 1 -26.20591536275732 6.5 L-26.20591536275732 6.5 L-36.205915362757324 6.500000000000001 L-36.205915362757324 -6.499999999999993 L-26.20591536275732 -6.499999999999994 A27 27 0 0 1 -23.12657453791898 -13.934186382493865 L-23.12657453791898 -13.934186382493865 L-30.197642349784456 -21.00525419435934 L-21.005254194359345 -30.197642349784452 L-13.93418638249387 -23.126574537918977 A27 27 0 0 1 -6.500000000000001 -26.20591536275732 L-6.500000000000001 -26.20591536275732 L-6.500000000000003 -36.205915362757324 L6.499999999999989 -36.205915362757324 L6.499999999999991 -26.20591536275732 A27 27 0 0 1 13.934186382493861 -23.126574537918984 L13.934186382493861 -23.126574537918984 L21.00525419435933 -30.19764234978446 L30.19764234978445 -21.005254194359352 L23.126574537918977 -13.934186382493873 A27 27 0 0 1 26.205915362757317 -6.500000000000003 M0 -20A20 20 0 1 0 0 20 A20 20 0 1 0 0 -20" fill="#000000"></path></g></g>
<!-- [ldio] generated by https://loading.io/ --></svg>